# xmcd CD database file
#
# Track frame offsets:
#	150
#	17230
#	33440
#	48835
#	66582
#	80780
#	95695
#	136255
#	148012
#	166642
#	186975
#	203005
#	220717
#	249285
#	268735
#
# Disc length: 3846 seconds
#
# Revision: 1
# Processed by: cddbd v1.4PL0 Copyright (c) Steve Scherf et al.
# Submitted via: CDex 1.50
#
DISCID=d80f040f
DTITLE=Lewis, Son - Next Train Smokin
DYEAR=1995
DGENRE=Blues
TTITLE0=Evil
TTITLE1=Phonograph Blues
TTITLE2=Mellow Down Easy
TTITLE3=Candy Man
TTITLE4=So Many Roads
TTITLE5=Driving Wheel
TTITLE6=Remember Me
TTITLE7=Mighty Crazy
TTITLE8=Lonmg Distance Call
TTITLE9=I've Had My Fun
TTITLE10=Tore Down
TTITLE11=Come On In My Kitchen
TTITLE12=Outside Woman Blues
TTITLE13=I Can't Keep From Crying
TTITLE14=Hodoo Blues
EXTD=YEAR: 1995
EXTT0=
EXTT1=
EXTT2=
EXTT3=
EXTT4=
EXTT5=
EXTT6=
EXTT7=
EXTT8=
EXTT9=
EXTT10=
EXTT11=
EXTT12=
EXTT13=
EXTT14=
PLAYORDER=
